<svg xmlns="http://www.w3.org/2000/svg" width="39.597" height="39.572" viewBox="0 0 39.597 39.572">
  <g id="github" transform="translate(0.541 0.5)">
    <path id="楕円形_4" data-name="楕円形 4" d="M19.331,0a19.271,19.271,0,1,1-7.525,1.519A19.271,19.271,0,0,1,19.331,0Z" transform="translate(-0.031 0)" fill="none" stroke="#ccc" stroke-width="1"/>
    <path id="パス_9" data-name="パス 9" d="M4.715,17.271a.881.881,0,0,0,.356,0,.522.522,0,0,0,.237-.12.512.512,0,0,0,.133-.2.62.62,0,0,0,.041-.224V14.813a4.481,4.481,0,0,1-1.911.049A2.677,2.677,0,0,1,2.4,14.317a2.487,2.487,0,0,1-.569-.678,1.794,1.794,0,0,1-.152-.331,4.392,4.392,0,0,0-.409-.8,3.178,3.178,0,0,0-.4-.5,2.188,2.188,0,0,0-.309-.261,1,1,0,0,0-.123-.075,1.141,1.141,0,0,1-.419-.4.146.146,0,0,1,.075-.2A.741.741,0,0,1,.361,11a1.434,1.434,0,0,1,.156-.009,1.872,1.872,0,0,1,.744.214,2.362,2.362,0,0,1,.539.4,2.815,2.815,0,0,1,.328.38,1.914,1.914,0,0,1,.111.17,2.573,2.573,0,0,0,.842.91,2.069,2.069,0,0,0,.919.3,2.726,2.726,0,0,0,.859-.067,3.5,3.5,0,0,0,.64-.218,3.283,3.283,0,0,1,.11-.5,2.663,2.663,0,0,1,.166-.417,2.156,2.156,0,0,1,.206-.334,1.706,1.706,0,0,1,.231-.251,9.226,9.226,0,0,1-1.853-.382A4.917,4.917,0,0,1,2.72,10.3,4.138,4.138,0,0,1,1.546,8.66,6.979,6.979,0,0,1,1.1,6.021a4.772,4.772,0,0,1,.079-.879,4.3,4.3,0,0,1,.229-.8,4.251,4.251,0,0,1,.364-.713A4.553,4.553,0,0,1,2.253,3a2.855,2.855,0,0,1-.116-.366,3.727,3.727,0,0,1-.1-.646A4.219,4.219,0,0,1,2.072,1.1,4.862,4.862,0,0,1,2.362.026.778.778,0,0,1,2.543,0,2.25,2.25,0,0,1,3.1.058a4.748,4.748,0,0,1,.962.328,9.411,9.411,0,0,1,1.39.793q.336-.093.683-.163T6.839.9q.354-.047.712-.071T8.268.8q.358,0,.716.028T9.7.9q.354.047.7.117t.682.162a9.441,9.441,0,0,1,1.39-.794,4.719,4.719,0,0,1,.96-.328A2.216,2.216,0,0,1,13.985,0a.761.761,0,0,1,.18.025,4.77,4.77,0,0,1,.3,1.078,4.145,4.145,0,0,1,.037.884,3.686,3.686,0,0,1-.1.647A2.9,2.9,0,0,1,14.28,3a4.537,4.537,0,0,1,.484.631,4.227,4.227,0,0,1,.363.712,4.3,4.3,0,0,1,.228.8,4.81,4.81,0,0,1,.079.88,6.98,6.98,0,0,1-.45,2.648,4.118,4.118,0,0,1-1.177,1.638,4.912,4.912,0,0,1-1.646.881,9.32,9.32,0,0,1-1.856.377,1.762,1.762,0,0,1,.287.325,2.332,2.332,0,0,1,.243.455,3.024,3.024,0,0,1,.168.586,3.957,3.957,0,0,1,.063.718c0,.376,0,.734,0,1.064v2.019a.639.639,0,0,0,.04.226.5.5,0,0,0,.132.2.51.51,0,0,0,.239.119.9.9,0,0,0,.363-.006" transform="translate(10.617 10.596)" fill="#333"/>
  </g>
</svg>
