<svg xmlns="http://www.w3.org/2000/svg" width="296.1" height="131.722" viewBox="0 0 296.1 131.722">
  <g id="グループ_1177" data-name="グループ 1177" transform="translate(-862.558 -247.211)">
    <g id="グループ_1175" data-name="グループ 1175" transform="translate(929.587 329.711)">
      <g id="グループ_1172" data-name="グループ 1172" transform="translate(0 0)">
        <g id="グループ_1171" data-name="グループ 1171" transform="translate(0 0)">
          <path id="パス_4134" data-name="パス 4134" d="M239.369,469.715h-.035c-3.19-.224-6.929-.248-8.388-.248-1.532,0-5.411.024-8.321.248h-.038a.9.9,0,0,1-.833-.354,1.759,1.759,0,0,1-.164-.954c0-.745.146-1.173.915-1.3l.04-.005.363-.03c1.971-.162,3.276-.269,3.857-1.269.627-1.273.627-3.928.627-7.939V435.715c0-5.852,0-6.5-.568-7.757-.489-.8-2.169-.971-3.947-1.147-.277-.028-.559-.056-.843-.086l-.017,0c-.739-.106-.988-.434-.988-1.3,0-.465,0-1.433,1.059-1.433h.035c2.591.185,6.037.309,8.575.309,1.014,0,2.3-.069,3.792-.149,1.965-.105,4.191-.225,6.5-.225a31.483,31.483,0,0,1,7.895.875,14.236,14.236,0,0,1,5.291,2.5c2.552,2.031,3.845,5.009,3.845,8.852a11.247,11.247,0,0,1-4.075,9.2c-3.236,2.631-8.413,3.965-15.389,3.965-1.2,0-2.877-.035-4.369-.189l0,9.234c0,5.554.016,6.452.561,7.435.491.891,2.017,1.042,3.948,1.233.236.023.478.047.724.073h.009c.882.11,1.059.581,1.059,1.3C240.49,468.8,240.49,469.715,239.369,469.715Zm-8.423-1.244c1.467,0,5.222.024,8.439.249a.875.875,0,0,0,.09-.005,1.668,1.668,0,0,0,.02-.308,1.6,1.6,0,0,0-.018-.287,1.3,1.3,0,0,0-.165-.029l-.712-.072c-2.135-.212-3.978-.394-4.721-1.742-.685-1.235-.685-2.191-.685-8.414l0-9.861.561.073a40.5,40.5,0,0,0,4.8.245c12.255,0,18.469-4.094,18.469-12.169,0-3.574-1.135-6.215-3.47-8.074-2.634-2.1-6.862-3.16-12.566-3.16-2.285,0-4.5.119-6.45.224-1.505.081-2.8.151-3.845.151-2.553,0-6.017-.125-8.626-.31h-.018a2.258,2.258,0,0,0-.029.437,2.2,2.2,0,0,0,.015.3l.111.018c.278.03.554.057.825.084,2.142.213,3.992.4,4.721,1.658l.022.043c.668,1.471.668,2.236.668,8.192v22.148c0,4.314,0,6.918-.738,8.4l-.013.024c-.837,1.467-2.518,1.6-4.646,1.78l-.34.028-.048.009a2.276,2.276,0,0,0-.015.308c0,.142,0,.242.007.311C225.532,468.5,229.41,468.471,230.946,468.471Zm7.362-21.279a26.2,26.2,0,0,1-4.706-.382l-.409-.074V435.057c0-3.287-.007-6.127.964-7.491.922-1.341,3.309-1.522,5.524-1.522,3.734,0,6.668.879,8.72,2.613,2.12,1.79,3.195,4.4,3.195,7.742a10.04,10.04,0,0,1-3.047,7.644C246.276,446.133,242.83,447.192,238.308,447.192Zm-4.119-1.291a25.986,25.986,0,0,0,4.119.3c4.265,0,7.484-.971,9.568-2.887A8.958,8.958,0,0,0,250.6,436.4a8.663,8.663,0,0,0-2.842-6.982c-1.868-1.578-4.586-2.378-8.078-2.378-1.082,0-3.957,0-4.705,1.093l-.006.008c-.788,1.1-.785,3.926-.782,6.915V445.9Z" transform="translate(-221.029 -421.491)" fill="#fd8f80"/>
          <path id="パス_4135" data-name="パス 4135" d="M263.041,436.1h0a13.758,13.758,0,0,1,10.223,4.34,15.852,15.852,0,0,1,4,10.882,16.251,16.251,0,0,1-3.9,10.85,13.593,13.593,0,0,1-10.324,4.558,13.763,13.763,0,0,1-10.246-4.356,15.772,15.772,0,0,1-3.978-10.8,16.268,16.268,0,0,1,3.97-10.858A13.549,13.549,0,0,1,263.041,436.1Zm0,29.636a13,13,0,0,0,5.414-1.136,12.4,12.4,0,0,0,4.166-3.087,15.258,15.258,0,0,0,3.649-10.19c0-8.243-5.563-14.226-13.229-14.228a12.566,12.566,0,0,0-9.509,4.278,15.275,15.275,0,0,0-3.719,10.2C249.812,459.782,255.375,465.739,263.041,465.739Zm0-27.826a7.1,7.1,0,0,1,3.818,1.034,7.793,7.793,0,0,1,2.637,2.862c1.305,2.319,1.967,5.563,1.967,9.642a19.5,19.5,0,0,1-2.037,9.423,7.147,7.147,0,0,1-6.385,4.052,7,7,0,0,1-3.782-1.034,7.791,7.791,0,0,1-2.617-2.855c-1.3-2.316-1.959-5.542-1.959-9.587a19.9,19.9,0,0,1,2-9.5A7.078,7.078,0,0,1,263.041,437.913Zm0,26.018a6.129,6.129,0,0,0,5.517-3.544,18.528,18.528,0,0,0,1.909-8.936c0-3.85-.636-7.016-1.839-9.154a6.161,6.161,0,0,0-11.072.138,18.927,18.927,0,0,0-1.879,9.016c0,3.818.633,6.965,1.831,9.1A6.039,6.039,0,0,0,263.041,463.931Z" transform="translate(-211.95 -417.512)" fill="#fd8f80"/>
          <path id="パス_4136" data-name="パス 4136" d="M289.586,436.1c2.277,0,3.93.97,3.93,2.306a5.217,5.217,0,0,1-1.212,3.224,3.481,3.481,0,0,1-2.467,1.454,4.247,4.247,0,0,1-2.041-.676,3.137,3.137,0,0,0-1.391-.51c-.789,0-1.614.611-2.6,1.922l-.006.008a7.7,7.7,0,0,0-1.64,5.06v7.362q0,.581,0,1.1c-.005,2.75-.008,4.41.372,5.076l.013.025c.3.611,1.126.713,2.673.855.19.017.387.036.59.056.907.017.907.894.907,1.185s0,1.185-.934,1.185h-.015c-.631-.02-1.288-.044-1.984-.07-1.542-.058-3.137-.118-4.427-.118-1.379,0-3.115.063-4.795.124-.66.024-1.283.046-1.866.064h-.015c-1,0-1-.861-1-1.185,0-.748.248-1.067.915-1.178l.027,0c.191-.021.375-.04.553-.058,1.406-.143,2.093-.239,2.352-.833l.012-.027.015-.026c.555-.943.555-2.8.555-6.174v-8.922c0-2.137,0-3.826-.456-4.853l-.009-.022c-.347-.893-.764-1.062-1.412-1.062h0c-.066,0-.137,0-.211.006l-1.546.125a3.539,3.539,0,0,1-.379.027c-.94,0-1.011-.849-1.037-1.168l0-.041c0-.979.336-1.182,1.1-1.412l.048-.012a55.611,55.611,0,0,0,8.643-2.594l.09-.036h.1a1.117,1.117,0,0,1,1.246,1v.017c-.045,1.312-.092,2.657-.113,4.225C283.934,438.881,286.41,436.1,289.586,436.1Zm.251,5.989a2.608,2.608,0,0,0,1.7-1.089,4.208,4.208,0,0,0,.987-2.594c0-.633-1.179-1.311-2.935-1.311-3.28,0-5.849,3.672-7.5,6.433l-.925,1.551v-1.806c0-2.35.062-4.176.123-5.937a.471.471,0,0,0-.165-.051,57.027,57.027,0,0,1-8.7,2.6,2.371,2.371,0,0,0-.347.123,1.327,1.327,0,0,0-.023.308,1.367,1.367,0,0,0,.038.235h.006c.074,0,.177-.011.276-.022h.015l1.57-.127c.1-.006.186-.011.275-.008a2.292,2.292,0,0,1,2.335,1.686c.537,1.219.537,2.909.537,5.246v8.922c0,3.637,0,5.476-.678,6.654-.511,1.127-1.735,1.252-3.151,1.4l-.53.056-.063.011a1.808,1.808,0,0,0-.008.183c0,.086,0,.146.008.189.574-.018,1.189-.04,1.839-.064,1.688-.061,3.434-.124,4.831-.124,1.309,0,2.913.06,4.464.119.663.025,1.291.049,1.894.067,0-.044.007-.1.007-.187s0-.15-.008-.194c-.2-.02-.4-.038-.585-.055-1.617-.149-2.9-.266-3.466-1.389-.505-.9-.5-2.461-.5-5.56q0-.522,0-1.1v-7.362a8.629,8.629,0,0,1,1.848-5.669c1.185-1.58,2.262-2.317,3.39-2.317a3.9,3.9,0,0,1,1.866.631A3.385,3.385,0,0,0,289.837,442.092Z" transform="translate(-204.684 -417.512)" fill="#fd8f80"/>
          <path id="パス_4137" data-name="パス 4137" d="M298.91,431.824c.929,0,1.308.325,1.308,1.121v.018c-.015.428-.034.9-.054,1.4-.055,1.366-.116,2.894-.13,4.2,2.486-.008,5.761-.068,8.1-.125h.012a.723.723,0,0,1,.8.971l-.014.053-.573,1.784-.017.034a1.152,1.152,0,0,1-1.07.712h-.028c-2.129-.119-5.182-.179-7.339-.187l-.121,15.041c0,3.194.323,4.879,1.151,6a3.427,3.427,0,0,0,2.907,1.42,5.376,5.376,0,0,0,3.59-1.549l.03-.026a1.125,1.125,0,0,1,.708-.26,1.3,1.3,0,0,1,.984.517l.015.019c.359.478.765,1.02.085,1.705a9.688,9.688,0,0,1-7.159,3.458c-2.882,0-4.919-.723-6.411-2.274l-.017-.019c-1.441-1.659-2.056-3.791-2.056-7.127,0-1.432.031-2.874.062-4.269.031-1.412.063-2.872.063-4.342v-.007l.117-8.158-3.425.055a1.067,1.067,0,0,1-.877-.3,1.484,1.484,0,0,1-.245-1.01c0-.8.168-1.239,1.085-1.424l.008,0a8.753,8.753,0,0,0,4.534-2.412,13.835,13.835,0,0,0,2.516-4.137l.021-.048A1.331,1.331,0,0,1,298.91,431.824Zm.311,1.014a1.892,1.892,0,0,0-.311-.019c-.4,0-.417.015-.541.263a14.721,14.721,0,0,1-2.716,4.446,9.8,9.8,0,0,1-5.071,2.705,1.012,1.012,0,0,0-.26.076,1.611,1.611,0,0,0-.024.372,2.815,2.815,0,0,0,.013.311l.109,0,4.438-.072-.132,9.181c0,1.479-.032,2.944-.063,4.36-.03,1.389-.062,2.825-.062,4.247,0,3.11.523,4.985,1.8,6.465,1.308,1.355,3.062,1.96,5.685,1.96a8.739,8.739,0,0,0,6.437-3.148l.012-.012a.858.858,0,0,0,.065-.072,3.484,3.484,0,0,0-.228-.329c-.093-.11-.172-.149-.212-.149a.139.139,0,0,0-.073.031,6.371,6.371,0,0,1-4.254,1.8,4.431,4.431,0,0,1-3.708-1.824c-.969-1.314-1.346-3.164-1.346-6.6l.129-16.033h.493c2.244,0,5.545.058,7.873.188.04,0,.087-.012.152-.131l.458-1.425c-2.484.059-5.9.12-8.357.12h-.5v-.5c0-1.424.071-3.185.133-4.738.02-.492.039-.961.054-1.385C299.223,432.894,299.222,432.863,299.22,432.838Z" transform="translate(-198.724 -418.91)" fill="#fd8f80"/>
          <path id="パス_4138" data-name="パス 4138" d="M323.551,470.3h-.014c-.641-.019-1.329-.042-2.057-.067-1.74-.06-3.54-.121-4.855-.121-1.446,0-3.393.067-5.112.126-.654.023-1.285.044-1.861.062h-.015c-.7,0-1.059-.4-1.059-1.185,0-.7.168-1.186.988-1.3l.081-.007c1.3-.1,2.927-.234,3.293-.92l.006-.01c.5-.885.5-2.656.5-6.182v-8.8c0-2.453,0-4.781-.049-6.738-1.311.011-2.776.07-4.664.184h-.03a.806.806,0,0,1-.872-.809v-.057l.463-1.983.026-.052a1.126,1.126,0,0,1,1.069-.649h.018c1.472.054,2.7.061,3.952.062-.037-.924-.037-2-.037-2.746a18.45,18.45,0,0,1,4.805-12.623,12.659,12.659,0,0,1,9.666-4.347,6.24,6.24,0,0,1,2.7.424,2,2,0,0,1,1.169,1.945,6.5,6.5,0,0,1-.826,3.217,2.674,2.674,0,0,1-2.167,1.524,3.67,3.67,0,0,1-2.439-1.194c-.158-.135-.322-.275-.494-.413l-.028-.025a3.43,3.43,0,0,0-2.4-1.176c-2.046,0-2.9,3.225-3.251,5.931a74.242,74.242,0,0,0-.432,9.419c2.262-.009,4.987-.081,7.089-.187h.025a.838.838,0,0,1,.934.872v.081l-.661,1.983-.017.033a1.079,1.079,0,0,1-.944.647h-.027c-2.115-.114-4.479-.123-6.465-.124v15.6q0,.545,0,1.035c0,2.874-.007,4.456.422,5.123l.027.047c.283.565,1.91.736,3.218.873l.384.041.028,0c.686.114.978.5.978,1.3C324.612,470.185,323.87,470.3,323.551,470.3Zm-13.967-1,.046,0c.572-.017,1.2-.039,1.848-.061,1.726-.06,3.683-.127,5.146-.127,1.333,0,3.141.062,4.89.122.723.025,1.407.048,2.043.067l.041,0a.759.759,0,0,0,.018-.187,1.017,1.017,0,0,0-.029-.293.742.742,0,0,0-.1-.024l-.366-.039c-1.774-.186-3.45-.362-3.991-1.393-.574-.915-.572-2.406-.567-5.641q0-.3,0-.62V444.1h.5c2.079,0,4.662,0,6.973.123a.263.263,0,0,0,.057-.073l.514-1.544c-2.253.11-5.169.181-7.48.181h-.5v-.5a79.048,79.048,0,0,1,.442-10.052,13.321,13.321,0,0,1,1.446-4.982,3.213,3.213,0,0,1,2.79-1.809,4.352,4.352,0,0,1,3.069,1.43c.179.144.344.285.5.422a2.812,2.812,0,0,0,1.792.955c.9,0,2-1.671,2-3.745,0-.87-.47-1.374-2.872-1.374a11.664,11.664,0,0,0-8.922,4.012,17.483,17.483,0,0,0-4.555,11.963c0,.888,0,2.229.061,3.213l.033.529h-.53c-1.446,0-2.812,0-4.5-.062-.092,0-.121.014-.146.053l-.349,1.5c2.039-.121,3.587-.175,5-.175h.483l.015.482c.063,2.066.063,4.585.063,7.252v8.8c0,3.811,0,5.553-.624,6.666-.624,1.162-2.385,1.3-4.089,1.439l-.034,0c-.047.007-.079.014-.1.019a1.648,1.648,0,0,0-.019.3A1.307,1.307,0,0,0,309.584,469.3Z" transform="translate(-192.671 -422.075)" fill="#fd8f80"/>
          <path id="パス_4139" data-name="パス 4139" d="M337.147,436.1h0a13.758,13.758,0,0,1,10.223,4.34,15.852,15.852,0,0,1,4,10.882,16.251,16.251,0,0,1-3.9,10.85,13.593,13.593,0,0,1-10.324,4.558,13.762,13.762,0,0,1-10.246-4.356,15.771,15.771,0,0,1-3.978-10.8,16.269,16.269,0,0,1,3.97-10.858A13.549,13.549,0,0,1,337.147,436.1Zm0,29.636a13,13,0,0,0,5.414-1.136,12.4,12.4,0,0,0,4.166-3.087,15.259,15.259,0,0,0,3.649-10.19c0-8.243-5.564-14.226-13.229-14.228a12.566,12.566,0,0,0-9.51,4.278,15.275,15.275,0,0,0-3.719,10.2C323.918,459.782,329.481,465.739,337.147,465.739Zm0-27.826a7.1,7.1,0,0,1,3.818,1.034,7.793,7.793,0,0,1,2.637,2.862c1.305,2.319,1.967,5.563,1.967,9.642a19.5,19.5,0,0,1-2.037,9.423,7.147,7.147,0,0,1-6.385,4.052,7,7,0,0,1-3.783-1.034,7.79,7.79,0,0,1-2.618-2.855c-1.3-2.316-1.959-5.541-1.959-9.587a19.894,19.894,0,0,1,2-9.5A7.079,7.079,0,0,1,337.148,437.913Zm0,26.018a6.129,6.129,0,0,0,5.517-3.544,18.528,18.528,0,0,0,1.909-8.936c0-3.85-.636-7.016-1.839-9.154a6.162,6.162,0,0,0-11.073.138,18.925,18.925,0,0,0-1.88,9.016c0,3.818.633,6.965,1.832,9.1A6.041,6.041,0,0,0,337.148,463.931Z" transform="translate(-187.74 -417.512)" fill="#fd8f80"/>
          <path id="パス_4140" data-name="パス 4140" d="M354.5,422.09h.086c.7,0,1.183.384,1.183.934v.014c-.136,4.845-.249,9.324-.249,15.085v22.586q0,.592,0,1.121c-.005,2.827-.008,4.391.373,5.122.385.627,1.2.736,2.852.9l.342.035c.926.132.926.853.926,1.241,0,.324,0,1.185-1,1.185h-.03c-1.919-.117-4.217-.187-6.147-.187-2.186,0-4.67.07-6.645.188h-.03c-.94,0-1.06-.633-1.06-1.185a1.082,1.082,0,0,1,.991-1.241l.014,0,.529-.056c1.414-.145,2.051-.235,2.314-.835l.022-.044c.5-.884.5-2.788.5-6.245V433.131a17.84,17.84,0,0,0-.408-4.95,1.433,1.433,0,0,0-1.683-.979l-1.608.124a2.846,2.846,0,0,1-.312.02c-.938,0-1.01-.857-1.04-1.223l0-.041c0-.964.317-1.19,1.077-1.359a91.761,91.761,0,0,0,8.925-2.6Zm.272,1.022a.573.573,0,0,0-.111-.023c-2.531.9-6.6,2.084-8.951,2.606a2.755,2.755,0,0,0-.279.073,1.639,1.639,0,0,0-.019.294,1.746,1.746,0,0,0,.044.29,1.838,1.838,0,0,0,.214-.015l.017,0,1.623-.125c.1-.006.19-.009.278-.009A2.357,2.357,0,0,1,350,427.849a16.308,16.308,0,0,1,.464,4.784h0v28.076c0,3.719,0,5.6-.613,6.711-.512,1.136-1.661,1.254-3.114,1.4l-.513.054a.626.626,0,0,0-.109.023.993.993,0,0,0-.019.231,1.846,1.846,0,0,0,.008.189h.043c1.991-.118,4.49-.188,6.688-.188,1.937,0,4.24.07,6.171.187,0-.043.008-.1.008-.188a1.983,1.983,0,0,0-.011-.245l-.052-.009-.31-.032c-1.716-.174-2.956-.3-3.612-1.392l-.012-.022c-.505-.947-.5-2.5-.5-5.6q0-.529,0-1.12V438.123C354.521,432.39,354.633,427.925,354.768,423.112Z" transform="translate(-180.719 -422.09)" fill="#fd8f80"/>
          <path id="パス_4141" data-name="パス 4141" d="M372.835,469.936h-.016c-.6-.019-1.23-.043-1.9-.069-1.52-.059-3.092-.119-4.391-.119-1.432,0-3.291.069-4.932.131-.566.021-1.109.041-1.6.058h-.016c-.932,0-1.06-.629-1.06-1.308,0-.774.346-1.172,1.028-1.184l.43-.05c1.2-.138,2.157-.248,2.546-.774.436-.857.433-2.539.428-5.306q0-.47,0-.985v-9.236a16.392,16.392,0,0,0-.408-4.518,1.262,1.262,0,0,0-1.359-.935,3.5,3.5,0,0,0-.364.021h-.012l-1.555.124c-.14.014-.266.025-.384.025-.938,0-1-.843-1.03-1.3v-.035c0-.911.35-1.139,1.135-1.3,2.043-.526,6.094-1.7,8.737-2.665l.083-.03h.088a1.126,1.126,0,0,1,1.246,1.06v.021c-.17,4.079-.249,7.523-.249,10.836v7.924c0,3.48,0,5.412.382,6.326.318.511,1.294.6,2.525.722.227.022.462.044.7.07l.029,0c.641.107.914.46.914,1.178C373.831,469.052,373.831,469.936,372.835,469.936Zm-12.9-1h.041c.49-.016,1.028-.036,1.59-.057,1.649-.062,3.519-.131,4.969-.131,1.318,0,2.9.061,4.429.12.652.025,1.269.049,1.859.068a2.463,2.463,0,0,0,.015-.312,1.262,1.262,0,0,0-.01-.182l-.06-.012c-.233-.025-.459-.047-.677-.068-1.474-.141-2.747-.263-3.306-1.239l-.024-.048c-.477-1.093-.477-2.984-.477-6.75V452.4c0-3.321.079-6.771.249-10.855a.355.355,0,0,0-.175-.062c-2.682.975-6.714,2.139-8.749,2.662l-.027.006a3.084,3.084,0,0,0-.334.08,1.539,1.539,0,0,0-.013.225,2.244,2.244,0,0,0,.047.354c.072,0,.169-.01.279-.021h.01l1.555-.124a4.518,4.518,0,0,1,.462-.025,2.241,2.241,0,0,1,2.3,1.593l.008.025a18.74,18.74,0,0,1,.46,5.328v8.739q0,.514,0,.983c.006,3.053.009,4.734-.558,5.8l-.014.026-.017.024c-.635.917-1.855,1.057-3.267,1.219l-.451.053-.03,0h-.03l-.054,0a1.32,1.32,0,0,0-.011.188A2.3,2.3,0,0,0,359.933,468.94Zm5.977-37.193a4.423,4.423,0,0,1-4.24-4.24,4.241,4.241,0,1,1,8.482,0,4.423,4.423,0,0,1-4.241,4.24Zm0-7.487a3.466,3.466,0,0,0-3.245,3.246,3.246,3.246,0,0,0,6.492,0A3.467,3.467,0,0,0,365.909,424.26Z" transform="translate(-176.202 -421.706)" fill="#fd8f80"/>
          <path id="パス_4142" data-name="パス 4142" d="M386.473,436.1h0a13.758,13.758,0,0,1,10.223,4.34,15.852,15.852,0,0,1,4,10.882,16.25,16.25,0,0,1-3.9,10.85,13.593,13.593,0,0,1-10.323,4.558,13.763,13.763,0,0,1-10.246-4.356,15.771,15.771,0,0,1-3.978-10.8,16.269,16.269,0,0,1,3.97-10.858A13.549,13.549,0,0,1,386.473,436.1Zm0,29.636a13,13,0,0,0,5.413-1.136,12.4,12.4,0,0,0,4.166-3.087,15.258,15.258,0,0,0,3.65-10.19c0-8.243-5.563-14.226-13.229-14.228a12.566,12.566,0,0,0-9.509,4.278,15.275,15.275,0,0,0-3.719,10.2C373.244,459.782,378.807,465.739,386.473,465.739Zm0-27.826a7.1,7.1,0,0,1,3.818,1.034,7.792,7.792,0,0,1,2.637,2.862c1.305,2.319,1.967,5.563,1.967,9.642a19.5,19.5,0,0,1-2.037,9.423,7.147,7.147,0,0,1-6.385,4.052,7,7,0,0,1-3.783-1.034,7.79,7.79,0,0,1-2.618-2.855c-1.3-2.316-1.959-5.541-1.959-9.587a19.894,19.894,0,0,1,2-9.5A7.079,7.079,0,0,1,386.474,437.913Zm0,26.018a6.129,6.129,0,0,0,5.517-3.544,18.526,18.526,0,0,0,1.91-8.936c0-3.85-.636-7.016-1.839-9.154a6.162,6.162,0,0,0-11.073.138,18.925,18.925,0,0,0-1.88,9.016c0,3.818.633,6.965,1.832,9.1A6.041,6.041,0,0,0,386.474,463.931Z" transform="translate(-171.625 -417.512)" fill="#fd8f80"/>
        </g>
      </g>
    </g>
    <g id="グループ_1176" data-name="グループ 1176" transform="translate(862.558 247.211)">
      <path id="パス_4129" data-name="パス 4129" d="M189.82,383.636c0-6.6,0-7.507-.7-8.979-.772-1.263-3.016-1.333-5.682-1.615-.491-.07-.632-.07-.632-.911s.141-1.052.632-1.052c2.876.21,5.823.279,8.91.279,3.436,0,9.329-.419,13.889-.419,19.152,0,28.762,9.96,28.762,24.762,0,14.944-10.033,25.816-29.323,25.816-4.069,0-9.049-.419-13.189-.419-3.086,0-6.033.069-8.628.28-.491,0-.632-.211-.632-.913s.141-.842.632-.911c2.384-.211,4.419-.421,5.26-1.754.772-1.473.7-4.56.7-9.19Zm6.594,24.974c0,3.928-.07,6.944,1.122,8.418,1.333,1.685,4.28,2.106,8,2.106,14.732,0,21.958-9.47,21.958-23.151,0-13.749-7.716-22.587-21.466-22.587-4.841,0-7.786.421-8.7,1.824-.982,1.4-.911,4.348-.911,8.418V408.61Z" transform="translate(-182.804 -361.74)" fill="#fd8f80"/>
      <path id="パス_4130" data-name="パス 4130" d="M232.176,401.242c0,8.909,5.753,13.539,10.383,13.539,4.419,0,7.086-1.543,9.54-4.91a.716.716,0,0,1,.561-.352c.28,0,1.193.49,1.193,1.053,0,.21-.07.279-.35.7-3.156,4.84-6.945,6.734-12.207,6.734-9.189,0-15.432-6.945-15.432-16.415,0-9.191,6.312-16.906,15.362-16.906,8.84,0,12.768,7.715,12.979,12.417a1.585,1.585,0,0,1-.352,1.191,1.221,1.221,0,0,1-1.122.352c-6.875-.21-14.171-.283-20.342-.141A19.1,19.1,0,0,0,232.176,401.242Zm14.941-5.473c.561,0,.772-.49.7-1.122-.35-3.717-2.243-7.928-6.6-7.928-4.138,0-7.155,3.719-8.418,9.26A139.2,139.2,0,0,0,247.118,395.769Z" transform="translate(-168.736 -357.248)" fill="#fd8f80"/>
      <path id="パス_4131" data-name="パス 4131" d="M259.278,402.241c-4.98-2.384-7.716-3.786-7.716-9.471,0-3.788,3.016-8.138,9.961-8.138a22.349,22.349,0,0,1,4.7.633,22.088,22.088,0,0,0,4.419.138c.141,2.318.35,5.4.633,7.717,0,.422-.141.561-.772.632s-.7-.139-.913-.491c-1.471-3.717-4.208-6.734-7.927-6.734-3.577,0-5.332,2.315-5.332,4.98,0,2.457,1.543,3.579,5.753,5.471l2.315,1.053c5.473,2.456,8.559,4.561,8.559,10.033,0,4.771-3.369,9.891-11.646,9.891a21.974,21.974,0,0,1-9.049-1.893c-.561-2.035-1.191-5.121-1.543-7.367,0-.35.07-.491.772-.561.561-.07.7-.07.841.421,1.965,4.349,5.612,7.435,9.259,7.435,4.07,0,6.174-2.736,6.174-6.173,0-3.227-2.1-4.488-6.034-6.383Z" transform="translate(-160.616 -357.266)" fill="#fd8f80"/>
      <path id="パス_4132" data-name="パス 4132" d="M308.181,412.2c11.365-.141,12.487,5.471,12.487,8.979,0,5.332-3.436,12.348-17.4,12.348-8.91,0-14.1-4.21-14.1-8.7,0-3.648,2.456-6.384,7.156-8.208-3.648-1.125-4.7-2.6-4.7-4.911,0-2.665,2.385-4.771,6.8-6.733-4.49-1.4-8.068-4.068-8.068-9.611,0-5.612,5.051-10.734,12.348-10.734a15.679,15.679,0,0,1,6.8,1.613c4.138,0,8.137-.21,11.013-.49a.394.394,0,0,1,.421.49l-.911,2.035c-.141.421-.281.491-.633.491-2.456-.211-4.7-.211-7.086-.211a8.742,8.742,0,0,1,2.876,6.384c0,5.892-4.138,10.661-12.206,10.661a17.808,17.808,0,0,1-2.106-.21c-2.6,1.4-4,2.736-4,4.629,0,1.544,1.613,2.316,5.051,2.245Zm-4.77,5.262c-1.474,0-3.228-.139-4.7-.283a15.8,15.8,0,0,0-1.613,1.125,7.243,7.243,0,0,0-2.245,5.542c0,4.56,3.788,7.646,9.751,7.646,6.875,0,10.943-3.786,10.943-8.488,0-3.016-1.262-5.54-8.348-5.54h-3.789ZM296.4,395.087c0,5.26,2.456,8.7,6.525,8.7,3.928,0,6.453-3.437,6.453-8.7,0-5.052-2.525-8.56-6.453-8.56C298.713,386.528,296.4,390.176,296.4,395.087Z" transform="translate(-148.053 -357.266)" fill="#fd8f80"/>
      <path id="パス_4133" data-name="パス 4133" d="M316.5,389.666c-.771.07-.982.07-1.053-.982,0-.49.141-.633.913-.842a67.2,67.2,0,0,0,9.611-2.947c.353,0,.842.211.842.563-.139,1.895-.139,3.927-.139,5.75,2.456-4.068,6.243-6.522,10.874-6.522,2.034,0,9.891,1.052,9.891,9.82,0,2.525-.07,5.962-.07,7.716v4.56c0,4.139,0,6.173.561,7.225s1.824,1.122,3.719,1.333c.421.07.56.211.56.772,0,.632-.07.771-.56.771-2.245-.072-4.771-.211-6.944-.211-2.246,0-4.911.139-7.3.211-.491,0-.561-.139-.561-.771s.139-.772.561-.772c1.685-.139,3.016-.211,3.577-1.333.7-1.122.633-3.227.633-7.225v-9.26c0-1.962.211-3.717-.771-5.75a5.831,5.831,0,0,0-5.823-3.577,8.394,8.394,0,0,0-6.875,3.927,8.216,8.216,0,0,0-1.474,5.473v9.189c0,4.139-.07,6.243.421,7.225.561,1.122,1.895,1.122,3.928,1.333.421.07.561.138.561.772s-.139.771-.561.771c-2.245-.072-4.77-.211-6.876-.211-2.314,0-4.98.139-7.294.211-.422,0-.563-.139-.563-.771s.139-.7.563-.772c1.684-.211,3.016-.211,3.648-1.333.56-1.122.56-3.227.56-7.225V396.752c0-2.526,0-4.49-.56-5.754a1.919,1.919,0,0,0-2.316-1.471Z" transform="translate(-139.469 -357.248)" fill="#fd8f80"/>
      <g id="グループ_1174" data-name="グループ 1174" transform="translate(112.143 0)">
        <path id="パス_4143" data-name="パス 4143" d="M293.334,378.152c-.1-.036-10.307-3.4-14.174-13.308a1.415,1.415,0,0,0-.078-.13,1.156,1.156,0,0,0-.1-.17,1.173,1.173,0,0,0-.2-.211,1.34,1.34,0,0,0-.139-.111,1.194,1.194,0,0,0-.295-.133,1.013,1.013,0,0,0-.146-.054,1.374,1.374,0,0,0-.495-.012,1.3,1.3,0,0,0-.456.18.87.87,0,0,0-.121.1,1.244,1.244,0,0,0-.232.226,1.087,1.087,0,0,0-.092.151,1.2,1.2,0,0,0-.119.268,1.937,1.937,0,0,0-.04.194,1.42,1.42,0,0,0-.031.15c-.241,10.632-8.681,17.284-8.766,17.355a1.315,1.315,0,0,0-.379,1.62L275.3,400.3a1.323,1.323,0,0,0,1.416.72l14.569-2.569a1.321,1.321,0,0,0,1.084-1.162l1.879-17.745A1.32,1.32,0,0,0,293.334,378.152Zm-3.488,17.873-12.612,2.224-6.948-14.216a28.4,28.4,0,0,0,7.6-11.327l1.548,8.781a3.714,3.714,0,1,0,2.6-.459l-1.548-8.78a28.444,28.444,0,0,0,11.02,8.044Z" transform="translate(-267.332 -364.005)" fill="#fd8f80"/>
        <g id="グループ_1173" data-name="グループ 1173" transform="translate(7.655 32.576)">
          <path id="パス_4144" data-name="パス 4144" d="M284.372,412.963l1.17-8.4-5.148.907Z" transform="translate(-270.719 -383.332)" fill="#fd8f80"/>
          <path id="パス_4145" data-name="パス 4145" d="M282.918,389.858l-9.816,1.768,9.179,17.685,5.639-1,2.575-19.757Z" transform="translate(-273.102 -388.559)" fill="#fd8f80"/>
        </g>
      </g>
    </g>
  </g>
</svg>
