<svg xmlns="http://www.w3.org/2000/svg" width="39.597" height="39.572" viewBox="0 0 39.597 39.572">
  <g id="qiita" transform="translate(0.541 0.5)">
    <path id="楕円形_5" data-name="楕円形 5" d="M19.331,0a19.271,19.271,0,1,1-7.525,1.519A19.271,19.271,0,0,1,19.331,0Z" transform="translate(-0.031 0)" fill="none" stroke="#ccc" stroke-width="1"/>
    <g id="グループ_18" data-name="グループ 18" transform="translate(10.494 9.965)">
      <path id="パス_11" data-name="パス 11" d="M19.32,14.4a.465.465,0,0,0-.047-.119.192.192,0,0,0-.058-.062.667.667,0,0,0-.076-.042.819.819,0,0,1-.1-.06l-.015-.028-.015-.028-.014-.029L18.979,14l-.072-.013-.072-.014-.072-.014-.07-.013a1.976,1.976,0,0,0-.5-.131,2.5,2.5,0,0,0-.468-.012c-.156.009-.316.027-.486.044s-.351.033-.549.037l-.172-.157-.172-.157-.172-.157L16,13.257v-.116l-.028-.013-.028-.014-.029-.015-.03-.015-.013-.043L15.863,13l-.014-.042-.015-.041h-.061l-.013-.043-.014-.043-.015-.042-.015-.041a.362.362,0,0,1-.073-.2,1.324,1.324,0,0,1,0-.286,2.444,2.444,0,0,1,.053-.3,1.848,1.848,0,0,1,.073-.24c.054-.138.1-.276.143-.418a4.282,4.282,0,0,0,.1-.44c.029-.152.051-.312.067-.482s.026-.351.029-.545c.006-.029.011-.058.017-.086s.01-.057.015-.086l.015-.086.015-.086h-.061V8.573H16.06V8.116H16V7.771h-.058V7.43L15.8,6.986l-.143-.443L15.518,6.1l-.143-.444h-.062l-.028-.086-.027-.086L15.23,5.4l-.03-.086h-.054V5.2h-.058V5.084H15.03L15,5l-.028-.086-.027-.086-.028-.086-.031-.012-.028-.014L14.831,4.7,14.8,4.685l-.015-.057-.015-.057-.014-.057-.013-.057-.03-.013-.029-.014-.027-.015L14.631,4.4V4.286H14.57l-.015-.041L14.541,4.2l-.014-.043-.015-.043L14.4,4.058V3.942l-.045-.029-.043-.029-.043-.029-.043-.029V3.71l-.042-.028-.043-.028L14.1,3.626,14.055,3.6V3.482H14a.727.727,0,0,0-.1-.1,1.18,1.18,0,0,1-.1-.1.745.745,0,0,1-.087-.113.485.485,0,0,1-.058-.137A.233.233,0,0,1,13.6,2.9a.807.807,0,0,1,0-.16c0-.056.01-.115.011-.173a.547.547,0,0,0-.02-.168h-.055V.91h-.061V.341L13.4.256,13.334.17,13.262.085,13.192,0h-.46V.058h-.109l-.017.03L12.59.116l-.015.028-.013.03H12.45V.232h-.116L12.32.26l-.014.028L12.29.316l-.015.028h-.109V.4H12.05l-.015.03L12.02.459l-.013.029A.051.051,0,0,0,12,.518l-.058.013L11.88.546l-.057.015-.056.015L11.75.6l-.015.028L11.72.66,11.7.688,11.649.7l-.057.014-.057.014-.058.015L11.462.77,11.448.8l-.014.03-.015.029-.057.015L11.3.888,11.249.9l-.055.015v.06a.593.593,0,0,1-.064.04.56.56,0,0,1-.066.031.772.772,0,0,1-.074.024l-.087.021v.054H10.85V1.1h-.116V1.036h-.113V.982L10.535.967,10.449.953,10.363.939,10.277.924V.866H10.11V.8H9.881V.75H9.653V.692H9.424V.634L9.212.619,9,.6,8.783.591,8.568.576V.518A1.121,1.121,0,0,0,8.3.488c-.1,0-.223,0-.338.011S7.734.52,7.639.534a1.7,1.7,0,0,0-.218.043L7.143.6,6.856.632,6.569.66,6.284.688V.746l-.1.014-.1.013-.1.013L5.885.8V.862L5.755.89,5.627.919,5.5.948l-.126.03v.055H5.261v.061l-.072.013-.071.014-.071.014-.07.013V1.21l-.086.026L4.8,1.263l-.087.029-.088.03v.055l-.058.015-.057.015-.057.015L4.4,1.439l-.015.027-.014.028-.014.029-.015.029-.055.013-.056.014-.057.015-.057.015L4.1,1.637l-.014.029L4.072,1.7l-.015.03H3.945l-.013.028-.014.027L3.9,1.808l-.015.03H3.771l-.011.028-.014.028-.016.028-.017.028a1.2,1.2,0,0,1-.113.068l-.106.057a.652.652,0,0,0-.1.065.45.45,0,0,0-.084.093Q3.2,2.222,3.086,2.2c-.075-.016-.148-.035-.22-.056s-.142-.043-.21-.066L2.458,2H2.236V1.947l-.13-.013-.13-.014-.13-.02-.129-.015V1.831L1.56,1.816,1.4,1.8l-.156-.014L1.09,1.773v.058A.4.4,0,0,0,.949,1.9a.257.257,0,0,0-.069.081c-.017.03-.031.062-.05.095a.418.418,0,0,1-.085.1,1.974,1.974,0,0,0,.033.308,2.941,2.941,0,0,0,.071.294c.028.1.059.188.09.278s.062.176.089.259q.017.086.031.171t.029.172l.028.172L1.145,4c.009.02.026.062.046.116s.044.118.066.184a1.728,1.728,0,0,1,.052.191.313.313,0,0,1,.006.137H1.257a.264.264,0,0,1-.011.056c0,.018-.009.038-.013.057L1.218,4.8,1.2,4.859l-.03.013-.028.014L1.117,4.9l-.03.015v.116H1.026v.116H.971v.167H.913L.9,5.373.882,5.43l-.015.057-.015.057H.8v.174H.736v.109H.681l-.017.086L.648,6q-.008.043-.015.086T.62,6.172H.562v.17H.5v.17H.446v.17H.385L.369,6.8q-.008.057-.015.114t-.013.115Q.335,7.083.33,7.14H.272q-.009.07-.017.141T.24,7.423l-.014.143-.013.143H.153q-.008.122-.015.242l-.014.242L.11,8.435Q.1,8.556.095,8.677H.037A1.364,1.364,0,0,0,0,8.989c0,.126,0,.268.01.407s.022.276.037.392a2.118,2.118,0,0,0,.047.265v.511H.153v.4H.214v.283H.272v.283H.33v.228H.385v.228H.446q0,.043.011.086t.014.086q.007.043.016.086t.017.087H.562v.116H.62q.006.042.013.084t.015.085l.016.085.017.086H.736l.03.086.028.086.027.086.028.086H.91v.116H.968l.015.057L1,13.365a.293.293,0,0,0,.013.057c0,.019.008.038.011.057l.032.013.029.013.028.014.028.015.015.056.015.056.015.056.015.056.029.015.027.015.026.015.027.015v.116l.043.028.042.028.042.029.043.03v.113l.045.028.043.028.043.029.043.03v.109l.072.058L1.8,14.5l.072.057.07.056.115.128.115.129L2.283,15l.113.128h.116l.042.055.042.057.043.058.043.059H2.8l.015.026.015.028.015.03.015.032.043.011.043.013.042.015.041.015v.058h.116l.013.028.014.028.015.028L3.2,15.7l.056.013.056.014.056.015.056.015.013.03.014.028.014.028.013.03.057.015.058.015.058.013.055.011v.061L3.763,16l.058.015.058.013.055.011V16.1h.174v.055H4.22v.061l.069.015.072.015.073.013.073.011v.061l.1.015.1.014.1.013.1.013a5.9,5.9,0,0,0,.694.2c.239.053.486.093.744.124s.527.051.809.064.578.018.89.018c.126,0,.26,0,.4-.012s.275-.018.41-.032.268-.032.392-.053a3.2,3.2,0,0,0,.342-.077l.172-.014.172-.013.171-.013.17-.014v-.061l.143-.015.143-.014.143-.014.143-.015v-.062h.171v-.054l.158-.028.157-.028.157-.029.158-.032v-.061h.116V16.1l.085-.013.086-.015.087-.016.087-.017v-.055l.084-.028.084-.028.085-.029.088-.032v-.061h.112v-.054l.086-.028.085-.028.086-.029.088-.032.015-.028.015-.027.014-.028.013-.03.057-.013.057-.014.057-.014.057-.013.028-.043.027-.043.028-.044.03-.044h.112l.03-.043.028-.043.028-.042.03-.041h.112l.013-.029.014-.029.015-.028.015-.027.1-.086.1-.086.1-.086.1-.086a2.284,2.284,0,0,0,.206.362,2.674,2.674,0,0,0,.257.314,3.585,3.585,0,0,0,.3.276c.1.087.211.169.321.248l.03.042.028.043.027.043.028.042h.113l.017.03.016.029.015.028.013.026.043.015.043.015.042.015.041.015v.054h.116l.015.029.015.029.015.029.015.029.056.015.057.015.057.015.058.017.014.028.013.029.013.029.014.03h.112v.055h.174v.061H16.5v.055h.228a2.261,2.261,0,0,0,.316.082,1.819,1.819,0,0,0,.312.03,1.7,1.7,0,0,0,.312-.026,1.851,1.851,0,0,0,.316-.086h.171v-.055l.085-.03.085-.029.086-.027.088-.026.015-.03.014-.029.014-.028.015-.028h.116l.056-.071.057-.071.057-.072.058-.075.026-.011.028-.013.029-.015.03-.015v-.116l.028-.013.028-.015.029-.016.032-.017v-.116l.025-.011.027-.013.029-.015.029-.015v-.116H19.3v-.167h.061v-.116h.058a.837.837,0,0,0,.071-.25,1.23,1.23,0,0,0,0-.279,1,1,0,0,0-.057-.255.436.436,0,0,0-.113-.175ZM14.239,6.465h-.055A.3.3,0,0,1,14,6.48a2.583,2.583,0,0,1-.288-.057L13.4,6.344a2.266,2.266,0,0,0-.251-.053c.007.116.019.248.031.388s.024.289.031.437a4.069,4.069,0,0,1,0,.438,1.755,1.755,0,0,1-.063.39H13.1v.228h-.061v.174h-.058v.116h-.058l-.015.071-.014.071-.014.071a.35.35,0,0,1-.015.07H12.8l-.013.043-.014.043-.015.042-.015.042-.028.015-.027.015-.027.015-.028.017v.112l-.1.085-.1.086-.1.087-.1.087-.057.072-.057.071-.056.071-.055.07h-.116l-.029.045-.029.043-.028.043-.027.043-.086.027-.086.029-.087.03-.088.031-.015.027-.015.028-.015.029-.017.029h-.112v.055h-.112v.058h-.171v.058h-.112v.058l-.359.1-.357.1-.356.1-.357.1H9.093a3.38,3.38,0,0,1-.363.084c-.126.022-.256.039-.391.052s-.273.021-.415.027-.287.007-.434.007H6l-.3-.072-.3-.071-.3-.071-.3-.07v-.058H4.691v-.058H4.52v-.058H4.4l-.015-.027-.014-.029-.014-.03-.015-.031-.055-.013-.056-.014L4.174,10.3l-.057-.017L4.1,10.259l-.014-.028L4.074,10.2l-.015-.03H3.947l-.055-.07-.058-.071L3.776,9.96l-.057-.072-.085-.074-.086-.072-.087-.071L3.374,9.6V9.49l-.042-.028-.041-.029L3.25,9.4l-.042-.03-.015-.056-.015-.056L3.163,9.2,3.15,9.144a4.012,4.012,0,0,1-.175-.371,3.906,3.906,0,0,1-.147-.423,3.7,3.7,0,0,1-.1-.47,3.508,3.508,0,0,1-.037-.509l-.242.1-.242.1-.243.1-.244.1L1.7,7.735l-.014-.042-.01-.043-.017-.043c.079-.042.161-.082.246-.122s.17-.078.258-.115l.263-.11.263-.106A1.426,1.426,0,0,1,2.7,7c.005-.049.01-.091.013-.131a.565.565,0,0,0,0-.1A.139.139,0,0,0,2.689,6.7a.357.357,0,0,0-.171-.02c-.085,0-.193.011-.306.022l-.339.035c-.107.01-.2.018-.269.018V6.584l.286-.03.286-.029L2.464,6.5l.286-.028c.007-.036.014-.067.02-.1s.012-.057.017-.087.009-.06.012-.1,0-.076,0-.123a.287.287,0,0,1-.061-.016A.133.133,0,0,1,2.71,6.03a.066.066,0,0,1-.01-.015.027.027,0,0,1,0-.007H2.181V5.95a.54.54,0,0,0-.156-.018c-.053,0-.106.006-.157.009a.713.713,0,0,1-.144,0,.217.217,0,0,1-.116-.048H1.492l.023-.053a.382.382,0,0,0,.017-.04.4.4,0,0,0,.012-.052c0-.021.007-.047.01-.081l.329.057.328.057.329.057.331.057.055-.185.057-.186.058-.185L3.1,5.152h.058l.028-.086.027-.086.028-.086.03-.087h.054V4.7h.058L3.4,4.638l.015-.057.015-.057.015-.057.028-.013L3.5,4.439l.028-.015.028-.015V4.3l.03-.013.028-.014.028-.014.03-.013v-.12L3.7,4.11l.027-.01.027-.014.026-.013V3.952l.1-.086.1-.085.1-.085.1-.084V3.495l.043-.028.042-.029.042-.029.043-.03V3.318h.113l.071-.085.073-.086.074-.086.073-.085h.112L4.9,2.935l.028-.042.029-.043.032-.043H5.1V2.748h.113l.013-.028.014-.028.015-.028.015-.028.055-.014.056-.015.057-.015.057-.014.015-.03.015-.028.014-.028.013-.03.072-.015L5.7,2.433l.072-.014.07-.015V2.346l.057-.015.057-.014L6.008,2.3l.057-.015V2.23l.084-.013L6.234,2.2l.085-.014.086-.015V2.117H6.58V2.059h.229V2h.283V1.943h.457V1.885h.914v.058h.46l.257.071.256.071.257.071.259.07v.058l.085.028.086.028.086.029.085.03v.058h.113v.058l.085.028.086.029.087.029.087.03.016.028.016.028.016.028.014.028h.109l.032.043.029.043.028.042.028.041h.112l.044.057.043.057.043.057.044.057h.112l.015.03.014.028.014.027.015.028.085.072.086.071.087.071.087.07v.116l.072.056.072.057.073.057.074.058V4l.028.015.027.014.028.014.03.015a.17.17,0,0,0,.011.043l.013.043.015.042.015.041h.058V4.34l.03.015.028.015.028.014.03.013v.116h.058a.327.327,0,0,1,.031.072c.006.02.008.036.012.052a.138.138,0,0,0,.02.046.258.258,0,0,0,.054.055.369.369,0,0,0,.239-.011,4.172,4.172,0,0,0,.4-.128c.145-.053.293-.11.422-.158a2.7,2.7,0,0,1,.306-.1l.015.057.014.057.014.057.015.057-.3.1-.3.1-.3.1-.3.1h-.116l.043.115.043.115.043.114.044.113.3-.028.3-.028.3-.028.3-.028v.174l-.271.028-.271.029-.271.029-.271.03a.266.266,0,0,0-.02.029h-.005a.238.238,0,0,0-.031.02l.01.075.015.071.014.071.013.07H13.1l.015.044.014.043.014.044.015.043.27.043L13.7,6.2l.271.042.27.043v.181Z" fill="#333"/>
    </g>
  </g>
</svg>
