<svg xmlns="http://www.w3.org/2000/svg" width="274.542" height="157.773" viewBox="0 0 274.542 157.773">
  <path id="パス_4171" data-name="パス 4171" d="M25.575-54.12a.931.931,0,0,1-.66.082.39.39,0,0,1-.33-.412,33.161,33.161,0,0,0,.99-3.217q.5-1.9.825-3.382a3.3,3.3,0,0,1,1.98-2.805,75.651,75.651,0,0,1,9.653-4.29A80.211,80.211,0,0,1,48.675-71.28,101.612,101.612,0,0,1,68.97-73.26q13.035,0,20.213,2.888T96.36-60.06a14.308,14.308,0,0,1-2.392,7.508,27.15,27.15,0,0,1-6.683,7.177,41.84,41.84,0,0,1-10.477,5.693,54.222,54.222,0,0,1-13.613,3.217q-1.485.165-.99,1.32,3.135,5.775,8.663,14.438T83.325-2.31a87.6,87.6,0,0,0,8.167,9.57,62.92,62.92,0,0,0,9.817,8.168,50.669,50.669,0,0,0,11.3,5.692,36.857,36.857,0,0,0,12.458,2.145,41.834,41.834,0,0,0,19.635-5.115q.99-.66.99.33a.78.78,0,0,1-.66.825,60.65,60.65,0,0,1-11.055,4.538A42.865,42.865,0,0,1,121.6,25.575a64.2,64.2,0,0,1-16.5-1.9A43.657,43.657,0,0,1,92.07,17.82a55.517,55.517,0,0,1-11.3-10.23A143.783,143.783,0,0,1,69.63-7.59q-1.65-2.64-3.96-6.517t-4.785-8q-2.475-4.125-4.7-8T52.47-36.465q0-.66.495-.66a65.323,65.323,0,0,0,13.612-1.32A34.839,34.839,0,0,0,77.3-42.487a20.407,20.407,0,0,0,7.1-6.93,18.526,18.526,0,0,0,2.558-9.817,13.324,13.324,0,0,0-.743-4.208,9.316,9.316,0,0,0-2.64-3.96A15.144,15.144,0,0,0,78.54-70.29a23.174,23.174,0,0,0-7.92-1.155,12.589,12.589,0,0,0-3.217.413A5.4,5.4,0,0,0,64.68-69.3a80.562,80.562,0,0,0-5.115,7.177q-3.3,5.032-7.26,11.633t-8.25,14.025q-4.29,7.425-8.167,14.438T29.04-9.323Q26.07-3.63,24.585-.33a.665.665,0,0,1-.66.33q-.825-.165-1.65-.247T20.625-.33h-1.98A10.231,10.231,0,0,0,16.17,0a16.413,16.413,0,0,0-3.8,3.135,2.027,2.027,0,0,1-.743-.165q-.412-.165-.082-.495Q26.73-19.635,37.125-36.96T55.11-68.64q.5-1.32.248-1.65a1.31,1.31,0,0,0-1.073-.33,39.53,39.53,0,0,0-9.9,1.98,58.4,58.4,0,0,0-9.24,3.96,21.891,21.891,0,0,0-5.28,4.455A33.862,33.862,0,0,0,25.575-54.12Zm111.87,34.485a77.933,77.933,0,0,1-6.683,7.178,62.932,62.932,0,0,1-8.415,6.765,48.175,48.175,0,0,1-9.405,4.95,26.429,26.429,0,0,1-9.652,1.9q-7.755,0-7.755-6.93a24.641,24.641,0,0,1,2.393-9.982,42.1,42.1,0,0,1,6.187-9.9,39.938,39.938,0,0,1,8.332-7.59A15.64,15.64,0,0,1,121.11-36.3a4.815,4.815,0,0,1,3.217.825,2.764,2.764,0,0,1,.908,2.145A9.171,9.171,0,0,1,124-29.04a15,15,0,0,1-3.712,4.372,21.181,21.181,0,0,1-6.27,3.465,26.223,26.223,0,0,1-9.075,1.4,26.35,26.35,0,0,0-1.815,4.7,22.046,22.046,0,0,0-.99,6.518q0,6.765,6.1,6.765a19.082,19.082,0,0,0,7.838-1.815,45.2,45.2,0,0,0,7.838-4.538,56.324,56.324,0,0,0,7.012-5.94,61.552,61.552,0,0,0,5.363-6.023.64.64,0,0,1,.742-.165A.642.642,0,0,1,137.445-19.635ZM120.12-32.505a1.9,1.9,0,0,0-2.145-2.145,5.836,5.836,0,0,0-3.382,1.237A18.351,18.351,0,0,0,111.21-30.2a43.077,43.077,0,0,0-3.135,4.29A36.824,36.824,0,0,0,105.6-21.45a3.661,3.661,0,0,0,1.155.247q.825.083,1.32.083A11.968,11.968,0,0,0,116.49-24.5,10.588,10.588,0,0,0,120.12-32.505Zm55.935,10.4a81.587,81.587,0,0,1-5.61,6.353q-3.135,3.218-6.435,6.105a65.218,65.218,0,0,1-6.765,5.2,40.03,40.03,0,0,1-6.6,3.63,26.194,26.194,0,0,1-4.538,1.4A19.819,19.819,0,0,1,142.23.99q-9.075,0-9.075-7.59a16.892,16.892,0,0,1,1.32-6.27A43.737,43.737,0,0,1,143.3-26.648,36.78,36.78,0,0,1,155.6-35.475a8.98,8.98,0,0,1,3.3-.825Q165-36.3,165-31.515a5.591,5.591,0,0,1-1.155,3.8,40.168,40.168,0,0,1-3.3,2.805l-.495-.165a7.922,7.922,0,0,0,.495-2.805,4.83,4.83,0,0,0-1.238-3.135,4.765,4.765,0,0,0-3.878-1.485,10.217,10.217,0,0,0-6.022,2.062A20.3,20.3,0,0,0,144.292-25a29.521,29.521,0,0,0-3.548,7.755,30.947,30.947,0,0,0-1.32,8.992,6.692,6.692,0,0,0,1.9,5.2,6.714,6.714,0,0,0,4.7,1.733q4.62,0,12.458-5.362T175.23-22.935q.825-.825,1.238-.413T176.055-22.11Zm26.4-36.3a6.048,6.048,0,0,1-1.732,3.96,5.085,5.085,0,0,1-3.878,1.98,1.75,1.75,0,0,1-1.98-1.98,6.567,6.567,0,0,1,1.567-4.125,4.771,4.771,0,0,1,3.878-1.98A1.9,1.9,0,0,1,202.455-58.41Zm7.425,36.8A75.031,75.031,0,0,1,200.8-11.88a78.287,78.287,0,0,1-9.4,7.425,29.552,29.552,0,0,1-6.765,3.3A20.035,20.035,0,0,1,178.365,0a18.925,18.925,0,0,1-2.31-.165,5.9,5.9,0,0,1-2.392-.825,6.047,6.047,0,0,1-1.815-1.733A4.992,4.992,0,0,1,171.1-5.61a15.66,15.66,0,0,1,1.65-5.857q1.65-3.713,3.878-7.672t4.455-7.59q2.228-3.63,3.548-5.445a6.22,6.22,0,0,1,2.888-2.228,9.143,9.143,0,0,1,2.722-.908q.825,0,.825.5a3.161,3.161,0,0,1-.247.99,2.764,2.764,0,0,1-.577.99q-2.145,3.3-4.372,7.26T181.83-17.9a59.931,59.931,0,0,0-2.887,6.847,16.412,16.412,0,0,0-1.073,4.95,3.58,3.58,0,0,0,1.073,2.888,4.324,4.324,0,0,0,2.887.908,15.033,15.033,0,0,0,7.26-2.227A56.748,56.748,0,0,0,196.928-9.9a75.076,75.076,0,0,0,7.177-6.6,63.394,63.394,0,0,0,5.115-5.94q.825-.825.908-.412A2.414,2.414,0,0,1,209.88-21.615Zm42.9-4.29Q244.035-14.85,234.052-9.488A82.615,82.615,0,0,1,213.18-1.65q-3.795.825-6.6,1.32l-5.61.99q-4.785,8.085-9.075,16.087t-8.58,15.923q-6.27,11.715-11.385,22.11T160.875,75.405a7.963,7.963,0,0,1-3.135,3.052,25.991,25.991,0,0,1-4.62,1.9q-2.64.825-6.105,1.65a71.515,71.515,0,0,0-7.59,2.31q-.99.495-1.155-.248T139.1,83a68.274,68.274,0,0,0,7.26-3.217,26.568,26.568,0,0,0,5.363-3.713,31.965,31.965,0,0,0,4.537-5.115q2.145-2.97,4.95-7.425,2.805-4.62,6.848-11.467t8.993-15.1Q182,28.71,187.44,19.387T198.495.66q-.99-.33-.99-1.815a1.089,1.089,0,0,1,1.073-1.155q1.072-.165,1.732-.33l7.59-12.375q5.28-8.58,10.56-17.82a143.025,143.025,0,0,1,10.89-16.5,4.106,4.106,0,0,1,1.815-.99,5.485,5.485,0,0,1,1.32-.33l1.98-.33q.99-.165,1.815-.248t.99-.082q.5,0,.495.33a1.81,1.81,0,0,1-.66,1.155q-3.465,3.135-6.1,6.022t-4.95,5.61q-2.31,2.722-4.372,5.528t-4.208,6.105q1.65-1.815,3.63-3.8t3.96-3.63a24.3,24.3,0,0,1,3.96-2.722,7.728,7.728,0,0,1,3.63-1.073,3.857,3.857,0,0,1,2.723.99,4.326,4.326,0,0,1,1.072,3.3,15.592,15.592,0,0,1-1.4,5.115,33.023,33.023,0,0,1-4.785,7.755,59.951,59.951,0,0,1-8.992,8.91,66.682,66.682,0,0,1-14.025,8.58q4.455-.495,9.982-1.567a56.116,56.116,0,0,0,11.468-3.63,60.458,60.458,0,0,0,11.88-6.93,56.046,56.046,0,0,0,11.22-11.3.473.473,0,0,1,.577-.247Q252.78-26.73,252.78-25.905Zm-23.1-4.29a7.05,7.05,0,0,0-.247-1.65q-.247-.99-1.732-.99a5.453,5.453,0,0,0-2.393.907,30.475,30.475,0,0,0-3.548,2.475,37.382,37.382,0,0,0-4.125,3.878,49.189,49.189,0,0,0-4.125,5.115q-2.805,3.96-5.445,8.5t-5.28,9.323A32.4,32.4,0,0,0,213.1-7.59a52.228,52.228,0,0,0,8.58-7.59,40.128,40.128,0,0,0,5.857-8.25A15.655,15.655,0,0,0,229.68-30.2Zm56.265,10.56a77.937,77.937,0,0,1-6.682,7.178,62.931,62.931,0,0,1-8.415,6.765,48.175,48.175,0,0,1-9.4,4.95,26.429,26.429,0,0,1-9.653,1.9q-7.755,0-7.755-6.93a24.641,24.641,0,0,1,2.393-9.982,42.1,42.1,0,0,1,6.188-9.9,39.938,39.938,0,0,1,8.333-7.59A15.64,15.64,0,0,1,269.61-36.3a4.814,4.814,0,0,1,3.217.825,2.764,2.764,0,0,1,.908,2.145,9.171,9.171,0,0,1-1.237,4.29,15,15,0,0,1-3.712,4.372,21.18,21.18,0,0,1-6.27,3.465,26.223,26.223,0,0,1-9.075,1.4,26.35,26.35,0,0,0-1.815,4.7,22.046,22.046,0,0,0-.99,6.518q0,6.765,6.1,6.765a19.082,19.082,0,0,0,7.838-1.815,45.2,45.2,0,0,0,7.837-4.538,56.323,56.323,0,0,0,7.012-5.94,61.556,61.556,0,0,0,5.363-6.023.64.64,0,0,1,.742-.165A.642.642,0,0,1,285.945-19.635ZM268.62-32.505a1.9,1.9,0,0,0-2.145-2.145,5.836,5.836,0,0,0-3.383,1.237A18.351,18.351,0,0,0,259.71-30.2a43.075,43.075,0,0,0-3.135,4.29A36.822,36.822,0,0,0,254.1-21.45a3.661,3.661,0,0,0,1.155.247q.825.083,1.32.083A11.968,11.968,0,0,0,264.99-24.5,10.588,10.588,0,0,0,268.62-32.505Z" transform="translate(-11.403 73.26)" fill="#163b4b"/>
</svg>
