<svg xmlns="http://www.w3.org/2000/svg" width="39.607" height="39.582" viewBox="0 0 39.607 39.582">
  <g id="twitter" transform="translate(0.509 0.5)">
    <g id="グループ_16" data-name="グループ 16" transform="translate(-0.076 0)">
      <path id="パス_7" data-name="パス 7" d="M19.331,0a19.276,19.276,0,1,0,7.525,1.52A19.276,19.276,0,0,0,19.331,0Z" fill="none" stroke="#ccc" stroke-width="1"/>
    </g>
    <path id="パス_8" data-name="パス 8" d="M7.444,3.809h.007q-.02-.084-.035-.171t-.024-.175q-.01-.088-.014-.178t0-.182A3.1,3.1,0,0,1,12.745.985q.217-.045.429-.1a3.988,3.988,0,0,0,.417-.133q.2-.073.4-.159T14.378.41l.083-.04.082-.04.081-.042L14.7.238a2.872,2.872,0,0,1-.168.411,3.056,3.056,0,0,1-.226.38,3.212,3.212,0,0,1-.277.344,3.313,3.313,0,0,1-.321.3l-.086.069-.089.068c-.03.022-.061.044-.093.064s-.064.04-.1.058h0q.189-.023.375-.057t.369-.079q.183-.045.362-.1t.354-.122l.079-.026.079-.027.078-.029.077-.03q-.155.23-.329.447t-.367.417q-.193.2-.4.383a4.962,4.962,0,0,1-.438.345v.4A8.94,8.94,0,0,1,13,6.565a9.163,9.163,0,0,1-1.7,2.844,8.371,8.371,0,0,1-2.768,2.075,8.942,8.942,0,0,1-3.791.8A8.96,8.96,0,0,1,3.468,12.2a8.748,8.748,0,0,1-1.231-.27A8.678,8.678,0,0,1,0,10.905l.185.019.186.015.187.01q.094,0,.189,0A6.255,6.255,0,0,0,1.53,10.9a6.131,6.131,0,0,0,1.465-.373,6.174,6.174,0,0,0,.674-.312l.015-.009L3.7,10.2l.015-.006.015-.005.04-.026.04-.026.04-.025.04-.022q.092-.052.182-.108l.178-.113q.088-.058.175-.12L4.6,9.627h0A3.1,3.1,0,0,1,2.351,8.6a3.139,3.139,0,0,1-.472-.685c-.017-.035-.033-.071-.049-.107S1.8,7.734,1.783,7.7s-.029-.075-.044-.114L1.7,7.468l.145.023q.072.01.145.017l.145.011h.3a.821.821,0,0,0,.151-.014q.075-.014.148-.021t.147-.028l.054-.009.055-.008.055-.008L3.1,7.42h0A3.113,3.113,0,0,1,.607,4.361V4.327q.125.068.256.125a2.736,2.736,0,0,0,.267.1q.136.045.276.077a2.859,2.859,0,0,0,.285.05l.079.014.08.012.08.009.081.006h.014a3.167,3.167,0,0,1-.567-.488,3.128,3.128,0,0,1-.437-.609,3.082,3.082,0,0,1-.38-1.488,2.981,2.981,0,0,1,.022-.36,3.011,3.011,0,0,1,.063-.347,3.133,3.133,0,0,1,.1-.333A3.294,3.294,0,0,1,.955.774C.965.757.974.74.983.723l.026-.05.025-.05L1.06.573A8.773,8.773,0,0,0,2.322,1.837a8.8,8.8,0,0,0,1.5.987,8.771,8.771,0,0,0,1.692.669A8.82,8.82,0,0,0,7.355,3.8h.093v.009Z" transform="translate(11.696 13.183)" fill="#333"/>
  </g>
</svg>
